<svg width="150" height="150" fill="none" xmlns="http://www.w3.org/2000/svg"><rect width="150" height="150" rx="75" fill="#F2F6FF"/><g filter="url(#a)"><path d="M76.14 47.341 55.685 53.19c-7.454 2.13-10.546 7.844-8.549 15.796l5.476 21.802c1.997 7.952 7.352 11.251 14.806 9.12l20.455-5.848c7.454-2.131 10.526-7.839 8.53-15.791l-5.476-21.802c-1.997-7.952-7.333-11.256-14.787-9.125Z" fill="url(#b)"/></g><g opacity=".5" filter="url(#c)"><path d="M86.22 75.912 82.504 60.9c-1.347-5.446-4.72-7.887-9.154-6.639l-15.017 4.23c-4.507 1.27-6.252 5.153-4.904 10.598l3.714 15.013c1.37 5.533 4.661 7.902 9.168 6.632l15.017-4.23c4.434-1.249 6.26-5.058 4.89-10.592Z" fill="#11B5E4"/></g><g filter="url(#d)"><mask id="f" maskUnits="userSpaceOnUse" x="59.66" y="56.626" width="48" height="51" fill="#000"><path fill="#fff" d="M59.66 56.626h48v51h-48z"/><path d="M93.923 57.626H72.748c-7.716 0-12.088 4.665-12.088 12.898v22.57c0 8.233 4.372 12.898 12.088 12.898h21.175c7.716 0 12.068-4.665 12.068-12.898v-22.57c0-8.233-4.352-12.898-12.068-12.898Z"/></mask><path d="M93.923 57.626H72.748c-7.716 0-12.088 4.665-12.088 12.898v22.57c0 8.233 4.372 12.898 12.088 12.898h21.175c7.716 0 12.068-4.665 12.068-12.898v-22.57c0-8.233-4.352-12.898-12.068-12.898Z" fill="#00ACDD"/><path d="M93.923 58.626a1 1 0 1 0 0-2v2Zm0-2a1 1 0 1 0 0 2v-2Zm0 0H72.748v2h21.175v-2Zm-21.175 0c-4.062 0-7.376 1.233-9.667 3.678-2.282 2.434-3.42 5.934-3.42 10.22h2c0-3.948 1.046-6.897 2.88-8.853 1.824-1.946 4.554-3.045 8.207-3.045v-2ZM59.66 70.524v22.57h2v-22.57h-2Zm0 22.57c0 4.286 1.14 7.786 3.421 10.22 2.29 2.444 5.605 3.678 9.667 3.678v-2c-3.653 0-6.383-1.099-8.208-3.046-1.833-1.956-2.88-4.904-2.88-8.852h-2Zm13.088 13.898h21.175v-2H72.748v2Zm21.175 0c4.063 0 7.372-1.234 9.658-3.679 2.277-2.435 3.41-5.935 3.41-10.219h-2c0 3.949-1.042 6.898-2.871 8.853-1.819 1.946-4.543 3.045-8.197 3.045v2Zm13.068-13.898v-22.57h-2v22.57h2Zm0-22.57c0-4.285-1.133-7.785-3.41-10.22-2.286-2.444-5.595-3.678-9.658-3.678v2c3.654 0 6.378 1.099 8.197 3.044 1.829 1.956 2.871 4.905 2.871 8.853h2Z" fill="url(#e)" mask="url(#f)"/></g><g filter="url(#g)"><mask id="j" fill="#fff"><path fill-rule="evenodd" clip-rule="evenodd" d="M83.405 67.514c-1.028 0-1.874.903-1.874 2.021v24.548c0 1.097.846 2 1.874 2 1.047 0 1.894-.903 1.894-2V69.535c0-1.118-.847-2.02-1.894-2.02Zm-10.577 7.933c-1.028 0-1.874.903-1.874 2.02v16.617c0 1.096.846 2 1.874 2 1.047 0 1.894-.904 1.894-2V77.468c0-1.118-.847-2.02-1.894-2.02Zm19.12 10.79c0-1.117.846-2.02 1.894-2.02 1.027 0 1.873.903 1.873 2.02v7.847c0 1.096-.846 1.999-1.894 1.999-1.027 0-1.873-.903-1.873-2v-7.845Z"/></mask><path fill-rule="evenodd" clip-rule="evenodd" d="M83.405 67.514c-1.028 0-1.874.903-1.874 2.021v24.548c0 1.097.846 2 1.874 2 1.047 0 1.894-.903 1.894-2V69.535c0-1.118-.847-2.02-1.894-2.02Zm-10.577 7.933c-1.028 0-1.874.903-1.874 2.02v16.617c0 1.096.846 2 1.874 2 1.047 0 1.894-.904 1.894-2V77.468c0-1.118-.847-2.02-1.894-2.02Zm19.12 10.79c0-1.117.846-2.02 1.894-2.02 1.027 0 1.873.903 1.873 2.02v7.847c0 1.096-.846 1.999-1.894 1.999-1.027 0-1.873-.903-1.873-2v-7.845Z" fill="url(#h)"/><path d="M81.931 69.535c0-.924.694-1.62 1.474-1.62v-.8c-1.275 0-2.274 1.109-2.274 2.42h.8Zm0 24.548V69.535h-.8v24.548h.8Zm1.474 1.6c-.783 0-1.474-.7-1.474-1.6h-.8c0 1.293 1.001 2.4 2.274 2.4v-.8Zm1.493-1.6c0 .898-.688 1.6-1.493 1.6v.8c1.29 0 2.293-1.104 2.293-2.4h-.8Zm0-24.548v24.548h.8V69.535h-.8Zm-1.493-1.62c.802 0 1.493.698 1.493 1.62h.8c0-1.314-1-2.42-2.293-2.42v.8Zm-12.05 9.553c0-.925.693-1.62 1.473-1.62v-.8c-1.275 0-2.274 1.109-2.274 2.42h.8Zm0 16.616V77.468h-.8v16.616h.8Zm1.473 1.6c-.783 0-1.474-.7-1.474-1.6h-.8c0 1.292 1.001 2.4 2.274 2.4v-.8Zm1.494-1.6c0 .897-.689 1.6-1.494 1.6v.8c1.29 0 2.294-1.105 2.294-2.4h-.8Zm0-16.616v16.616h.8V77.468h-.8Zm-1.494-1.62c.802 0 1.494.698 1.494 1.62h.8c0-1.314-1.002-2.42-2.294-2.42v.8Zm21.014 7.97c-1.293 0-2.294 1.106-2.294 2.42h.8c0-.922.69-1.62 1.494-1.62v-.8Zm2.273 2.42c0-1.311-.998-2.42-2.273-2.42v.8c.78 0 1.473.695 1.473 1.62h.8Zm0 7.846v-7.846h-.8v7.846h.8Zm-2.293 2.399c1.29 0 2.293-1.104 2.293-2.4h-.8c0 .898-.688 1.6-1.493 1.6v.8Zm-2.274-2.4c0 1.293 1.001 2.4 2.273 2.4v-.8c-.782 0-1.473-.699-1.473-1.6h-.8Zm0-7.845v7.846h.8v-7.846h-.8Z" fill="url(#i)" mask="url(#j)"/></g><defs><linearGradient id="b" x1="75.779" y1="75.833" x2="40.473" y2="104.53" gradientUnits="userSpaceOnUse"><stop stop-color="#11B5E4"/><stop offset="1" stop-color="#035B81"/></linearGradient><linearGradient id="e" x1="67.876" y1="63.261" x2="99.089" y2="99.493" gradientUnits="userSpaceOnUse"><stop stop-color="#fff" stop-opacity=".25"/><stop offset="1" stop-color="#fff" stop-opacity="0"/></linearGradient><linearGradient id="h" x1="64.545" y1="88.719" x2="77.408" y2="113.486" gradientUnits="userSpaceOnUse"><stop stop-color="#fff"/><stop offset="1" stop-color="#fff" stop-opacity=".2"/></linearGradient><linearGradient id="i" x1="74.896" y1="70.843" x2="93.491" y2="90.804" gradientUnits="userSpaceOnUse"><stop stop-color="#fff" stop-opacity=".25"/><stop offset="1" stop-color="#fff" stop-opacity="0"/></linearGradient><filter id="a" x="33.543" y="33.708" width="76.455" height="79.832" filterUnits="userSpaceOnUse" color-interpolation-filters="sRGB"><feFlood flood-opacity="0" result="BackgroundImageFix"/><feGaussianBlur in="BackgroundImage" stdDeviation="6.5"/><feComposite in2="SourceAlpha" operator="in" result="effect1_backgroundBlur_34_364"/><feBlend in="SourceGraphic" in2="effect1_backgroundBlur_34_364" result="shape"/></filter><filter id="c" x="39.986" y="40.941" width="59.679" height="63.128" filterUnits="userSpaceOnUse" color-interpolation-filters="sRGB"><feFlood flood-opacity="0" result="BackgroundImageFix"/><feBlend in="SourceGraphic" in2="BackgroundImageFix" result="shape"/><feGaussianBlur stdDeviation="6.5" result="effect1_foregroundBlur_34_364"/></filter><filter id="d" x="44.66" y="41.626" width="77.331" height="80.366" filterUnits="userSpaceOnUse" color-interpolation-filters="sRGB"><feFlood flood-opacity="0" result="BackgroundImageFix"/><feGaussianBlur in="BackgroundImage" stdDeviation="7.5"/><feComposite in2="SourceAlpha" operator="in" result="effect1_backgroundBlur_34_364"/><feBlend in="SourceGraphic" in2="effect1_backgroundBlur_34_364" result="shape"/></filter><filter id="g" x="55.954" y="52.514" width="54.761" height="58.569" filterUnits="userSpaceOnUse" color-interpolation-filters="sRGB"><feFlood flood-opacity="0" result="BackgroundImageFix"/><feGaussianBlur in="BackgroundImage" stdDeviation="7.5"/><feComposite in2="SourceAlpha" operator="in" result="effect1_backgroundBlur_34_364"/><feColorMatrix in="SourceAlpha" values="0 0 0 0 0 0 0 0 0 0 0 0 0 0 0 0 0 0 127 0" result="hardAlpha"/><feOffset dx="5" dy="5"/><feGaussianBlur stdDeviation="5"/><feColorMatrix values="0 0 0 0 1 0 0 0 0 0.447059 0 0 0 0 0.368627 0 0 0 0.5 0"/><feBlend in2="effect1_backgroundBlur_34_364" result="effect2_dropShadow_34_364"/><feBlend in="SourceGraphic" in2="effect2_dropShadow_34_364" result="shape"/></filter></defs></svg>