<svg width="58" height="58" fill="none" xmlns="http://www.w3.org/2000/svg"><g filter="url(#a)"><rect x="4" width="50" height="50" rx="19" fill="#02897A"/><path d="m33.116 26.598-9.143-9.143a.533.533 0 0 0-.402-.17.575.575 0 0 0-.214.045.572.572 0 0 0-.357.527v13.429a.573.573 0 0 0 .571.571.568.568 0 0 0 .402-.17l2.786-2.785 1.705 4.035a.574.574 0 0 0 .75.304l1.58-.67a.574.574 0 0 0 .304-.75l-1.794-4.25h3.41a.573.573 0 0 0 .527-.357.55.55 0 0 0-.125-.616Z" fill="#fff"/></g><defs><filter id="a" x="0" y="0" width="59" height="58" filterUnits="userSpaceOnUse" color-interpolation-filters="sRGB"><feFlood flood-opacity="0" result="BackgroundImageFix"/><feColorMatrix in="SourceAlpha" values="0 0 0 0 0 0 0 0 0 0 0 0 0 0 0 0 0 0 127 0" result="hardAlpha"/><feOffset dy="4"/><feGaussianBlur stdDeviation="2"/><feColorMatrix values="0 0 0 0 0 0 0 0 0 0 0 0 0 0 0 0 0 0 0.25 0"/><feBlend in2="BackgroundImageFix" result="effect1_dropShadow_1_541"/><feBlend in="SourceGraphic" in2="effect1_dropShadow_1_541" result="shape"/></filter></defs></svg>