<svg width="58" height="58" fill="none" xmlns="http://www.w3.org/2000/svg"><g filter="url(#a)"><rect x="4" width="50" height="50" rx="19" fill="#F03E3D"/><path d="M34.571 19.429h.858c.16 0 .285-.125.285-.286v-.572a.282.282 0 0 0-.285-.285H22.286a.282.282 0 0 0-.286.285v.572c0 .16.125.286.286.286h.857c0 3.303 1.58 5.696 3.33 6.857-1.75 1.16-3.33 3.553-3.33 6.857h-.857a.282.282 0 0 0-.286.286V34c0 .16.125.286.286.286h13.143c.16 0 .285-.125.285-.286v-.571a.282.282 0 0 0-.285-.286h-.858c0-3.304-1.58-5.697-3.33-6.857 1.75-1.161 3.33-3.554 3.33-6.857Zm-1.142 0a7.914 7.914 0 0 1-.76 3.428h-7.624a7.916 7.916 0 0 1-.76-3.428h9.144Zm-.51 10.857h-8.124c.66-1.724 1.848-2.947 3.035-3.429h2.054c1.187.482 2.375 1.706 3.036 3.429Z" fill="#fff"/></g><defs><filter id="a" x="0" y="0" width="58" height="58" filterUnits="userSpaceOnUse" color-interpolation-filters="sRGB"><feFlood flood-opacity="0" result="BackgroundImageFix"/><feColorMatrix in="SourceAlpha" values="0 0 0 0 0 0 0 0 0 0 0 0 0 0 0 0 0 0 127 0" result="hardAlpha"/><feOffset dy="4"/><feGaussianBlur stdDeviation="2"/><feColorMatrix values="0 0 0 0 0 0 0 0 0 0 0 0 0 0 0 0 0 0 0.25 0"/><feBlend in2="BackgroundImageFix" result="effect1_dropShadow_1_565"/><feBlend in="SourceGraphic" in2="effect1_dropShadow_1_565" result="shape"/></filter></defs></svg>