<svg width="150" height="150" fill="none" xmlns="http://www.w3.org/2000/svg"><rect width="150" height="150" rx="75" fill="#FFEFEF"/><path d="m74.68 47.426-19.53 6.012c-7.118 2.19-10.153 7.707-8.392 15.253l4.825 20.688c1.76 7.546 6.79 10.58 13.907 8.39l19.53-6.012c7.118-2.19 10.134-7.701 8.374-15.247l-4.826-20.688c-1.76-7.546-6.77-10.587-13.888-8.396Z" fill="url(#a)"/><g opacity=".5" filter="url(#b)"><path d="m73.281 56.68-12.9 3.97c-4.702 1.447-6.738 4.954-5.632 9.698l3.034 13.005c1.107 4.744 4.397 6.612 9.098 5.165l12.901-3.97c4.701-1.447 6.726-4.951 5.619-9.695l-3.034-13.005c-1.106-4.744-4.385-6.616-9.086-5.169Z" fill="#E31313"/></g><g filter="url(#c)"><path d="M87.563 58.297H69.105c-7.217 0-12.07 5.557-12.07 13.824v19.078c0 8.243 4.853 13.801 12.07 13.801h18.458c7.217 0 12.05-5.558 12.05-13.801V72.121c0-8.267-4.833-13.824-12.05-13.824Z" fill="#F03E3D"/><path d="M87.563 57.797H69.105c-3.745 0-6.903 1.446-9.118 3.983-2.21 2.53-3.453 6.112-3.453 10.34V91.2c0 4.218 1.243 7.793 3.453 10.321 2.215 2.533 5.373 3.98 9.118 3.98h18.458c3.745 0 6.898-1.447 9.108-3.981 2.205-2.528 3.442-6.103 3.442-10.32V72.121c0-4.229-1.237-7.81-3.442-10.34-2.21-2.538-5.363-3.984-9.108-3.984Z" stroke="url(#d)" stroke-linecap="round" stroke-linejoin="round"/></g><g filter="url(#e)"><path d="M101.871 54.866c-1.727 0-3.128 1.536-3.128 3.431s1.401 3.431 3.128 3.431c1.728 0 3.129-1.536 3.129-3.431 0-.91-.33-1.783-.917-2.426-.586-.644-1.382-1.005-2.212-1.005Z" fill="url(#f)"/></g><g filter="url(#g)"><path d="m89.462 77.513-6.085 8.611a1.55 1.55 0 0 1-1.063.677 1.478 1.478 0 0 1-1.183-.369l-5.84-5.023-5.261 7.463c-.381.663-1.123.962-1.805.725-.683-.236-1.133-.947-1.097-1.73a1.786 1.786 0 0 1 .337-1.066l6.29-8.898a1.552 1.552 0 0 1 1.05-.678c.42-.061.844.065 1.178.35l5.84 5.043 5.13-7.237c.246-.374.62-.621 1.037-.687.416-.066.84.056 1.172.338.687.59.82 1.672.3 2.44v.04Z" fill="url(#h)"/><path d="m83.214 86.01-.002.002a1.35 1.35 0 0 1-.925.59 1.278 1.278 0 0 1-1.024-.32l-.002-.002-5.84-5.023-.168-.144-.126.18-5.26 7.464-.006.007-.005.008c-.337.588-.982.839-1.566.636-.59-.204-.995-.827-.962-1.531v-.011c-.003-.346.104-.68.298-.947l.002-.002 6.29-8.9.002-.002c.224-.328.555-.539.915-.592a1.275 1.275 0 0 1 1.018.303l5.84 5.044.166.144.128-.18 5.13-7.238.003-.005c.218-.33.544-.543.901-.6.357-.056.721.048 1.011.293.607.521.73 1.49.264 2.176l-.035.05v.04l-6.047 8.56Z" stroke="url(#i)" stroke-width=".4"/></g><defs><linearGradient id="a" x1="73.846" y1="74.621" x2="39.468" y2="102.315" gradientUnits="userSpaceOnUse"><stop stop-color="#F03E3D"/><stop offset="1" stop-color="#870404"/></linearGradient><linearGradient id="d" x1="63.812" y1="63.738" x2="94.064" y2="97.897" gradientUnits="userSpaceOnUse"><stop stop-color="#fff" stop-opacity=".25"/><stop offset="1" stop-color="#fff" stop-opacity="0"/></linearGradient><linearGradient id="f" x1="102.332" y1="58.757" x2="96.651" y2="61.275" gradientUnits="userSpaceOnUse"><stop stop-color="#FF759F" stop-opacity="0"/><stop offset="1" stop-color="#FF196E"/></linearGradient><linearGradient id="h" x1="88.173" y1="77.385" x2="62.974" y2="78.626" gradientUnits="userSpaceOnUse"><stop stop-color="#fff"/><stop offset="1" stop-color="#fff" stop-opacity=".2"/></linearGradient><linearGradient id="i" x1="70.732" y1="76.424" x2="78.873" y2="91.65" gradientUnits="userSpaceOnUse"><stop stop-color="#fff" stop-opacity=".25"/><stop offset="1" stop-color="#fff" stop-opacity="0"/></linearGradient><filter id="b" x="37.454" y="39.201" width="65.243" height="66.795" filterUnits="userSpaceOnUse" color-interpolation-filters="sRGB"><feFlood flood-opacity="0" result="BackgroundImageFix"/><feBlend in="SourceGraphic" in2="BackgroundImageFix" result="shape"/><feGaussianBlur stdDeviation="8.5" result="effect1_foregroundBlur_42_54"/></filter><filter id="c" x="32.034" y="33.297" width="92.578" height="96.703" filterUnits="userSpaceOnUse" color-interpolation-filters="sRGB"><feFlood flood-opacity="0" result="BackgroundImageFix"/><feGaussianBlur in="BackgroundImage" stdDeviation="12"/><feComposite in2="SourceAlpha" operator="in" result="effect1_backgroundBlur_42_54"/><feBlend in="SourceGraphic" in2="effect1_backgroundBlur_42_54" result="shape"/></filter><filter id="e" x="83.743" y="39.866" width="36.257" height="36.862" filterUnits="userSpaceOnUse" color-interpolation-filters="sRGB"><feFlood flood-opacity="0" result="BackgroundImageFix"/><feGaussianBlur in="BackgroundImage" stdDeviation="7.5"/><feComposite in2="SourceAlpha" operator="in" result="effect1_backgroundBlur_42_54"/><feBlend in="SourceGraphic" in2="effect1_backgroundBlur_42_54" result="shape"/></filter><filter id="g" x="52.126" y="59.676" width="52.653" height="45.001" filterUnits="userSpaceOnUse" color-interpolation-filters="sRGB"><feFlood flood-opacity="0" result="BackgroundImageFix"/><feGaussianBlur in="BackgroundImage" stdDeviation="7.5"/><feComposite in2="SourceAlpha" operator="in" result="effect1_backgroundBlur_42_54"/><feColorMatrix in="SourceAlpha" values="0 0 0 0 0 0 0 0 0 0 0 0 0 0 0 0 0 0 127 0" result="hardAlpha"/><feOffset dx="5" dy="5"/><feGaussianBlur stdDeviation="5"/><feColorMatrix values="0 0 0 0 1 0 0 0 0 0.321569 0 0 0 0 0.54902 0 0 0 0.5 0"/><feBlend in2="effect1_backgroundBlur_42_54" result="effect2_dropShadow_42_54"/><feBlend in="SourceGraphic" in2="effect2_dropShadow_42_54" result="shape"/></filter></defs></svg>