<svg width="107" height="19" fill="none" xmlns="http://www.w3.org/2000/svg"><path d="M18.3 6.59a.92.92 0 0 0-.8-.62l-5.23-.42-2.26-5a.92.92 0 0 0-1.67 0l-2.26 5-5.23.42a.92.92 0 0 0-.57 1.57l3.86 3.76-1.36 5.92a.92.92 0 0 0 1.4.97l5-3.33 4.99 3.33a.92.92 0 0 0 1.39-1.01l-1.68-5.87 4.16-3.75a.92.92 0 0 0 .26-.97Zm22.01 0a.92.92 0 0 0-.8-.62l-5.23-.42-2.26-5a.92.92 0 0 0-1.67 0l-2.26 5-5.23.42a.92.92 0 0 0-.57 1.57l3.87 3.76-1.37 5.92a.92.92 0 0 0 1.4.97l5-3.33 5 3.33a.92.92 0 0 0 1.38-1.01L35.9 11.3l4.16-3.75a.92.92 0 0 0 .25-.97Zm22.01 0a.92.92 0 0 0-.8-.62l-5.23-.42-2.26-5a.92.92 0 0 0-1.67 0l-2.26 5-5.23.42a.92.92 0 0 0-.57 1.57l3.87 3.76-1.37 5.92a.92.92 0 0 0 1.4.97l5-3.33 5 3.33a.92.92 0 0 0 1.38-1.01l-1.67-5.87 4.16-3.75a.92.92 0 0 0 .25-.97Zm22.02 0a.92.92 0 0 0-.8-.62l-5.23-.42-2.26-5a.92.92 0 0 0-1.67 0l-2.26 5-5.23.42a.92.92 0 0 0-.57 1.57l3.86 3.76-1.36 5.92a.92.92 0 0 0 1.4.97l5-3.33 4.99 3.33a.92.92 0 0 0 1.39-1.01l-1.68-5.87 4.16-3.75a.92.92 0 0 0 .26-.97Zm7.86 4.71-1.37 5.92a.92.92 0 0 0 1.4.97l5-3.33 5 3.33a.92.92 0 0 0 1.38-1.01l-1.67-5.87 4.16-3.75a.92.92 0 0 0-.05-1.4.92.92 0 0 0-.5-.2l-5.22-.4L98.06.53a.92.92 0 0 0-1.67 0l-2.26 5.01-5.23.42a.92.92 0 0 0-.57 1.57l3.87 3.76Zm2.61-3.96a.92.92 0 0 0 .77-.54l1.65-3.65 1.65 3.65a.92.92 0 0 0 .76.54l3.64.29-3 2.7a.92.92 0 0 0-.26.93l1.15 4.02L97.74 13a.91.91 0 0 0-1.02 0l-3.58 2.38.96-4.17a.92.92 0 0 0-.25-.86l-2.79-2.71 3.75-.3Z" fill="#F3CD03"/></svg>